<svg width="60" height="41" viewBox="0 0 60 41" fill="none" xmlns="http://www.w3.org/2000/svg">
<g clip-path="url(#clip0_138_1276)">
<path d="M6.5 33.7258L18.5 17.1558L37.5 24.9998L54 6.06982" stroke="#E3E1E1"/>
<path d="M4.5 41C6.98528 41 9 38.9853 9 36.5C9 34.0147 6.98528 32 4.5 32C2.01472 32 0 34.0147 0 36.5C0 38.9853 2.01472 41 4.5 41Z" fill="#ABD9FD"/>
<path d="M18.5 23C20.9853 23 23 20.9853 23 18.5C23 16.0147 20.9853 14 18.5 14C16.0147 14 14 16.0147 14 18.5C14 20.9853 16.0147 23 18.5 23Z" fill="#FFE7AD"/>
<path d="M38.5 29C40.9853 29 43 26.9853 43 24.5C43 22.0147 40.9853 20 38.5 20C36.0147 20 34 22.0147 34 24.5C34 26.9853 36.0147 29 38.5 29Z" fill="#A9D5B7"/>
<path d="M55.5 9C57.9853 9 60 6.98528 60 4.5C60 2.01472 57.9853 0 55.5 0C53.0147 0 51 2.01472 51 4.5C51 6.98528 53.0147 9 55.5 9Z" fill="#F8B7B1"/>
</g>
<defs>
<clipPath id="clip0_138_1276">
<rect width="60" height="41" fill="white"/>
</clipPath>
</defs>
</svg>
