<svg width="38" height="29" viewBox="0 0 38 29" fill="none" xmlns="http://www.w3.org/2000/svg">
<g clip-path="url(#clip0_161_1270)">
<path fill-rule="evenodd" clip-rule="evenodd" d="M24.5181 27.6689L7.24012 20.8229C6.894 20.7463 6.55327 20.6471 6.22012 20.5259C1.80812 18.9199 -0.390879 13.8319 1.30912 9.1599C3.00912 4.4899 7.96412 2.0049 12.3751 3.6099L12.5191 3.6639C15.8501 0.3869 20.8901 -0.8821 25.5721 0.8219C30.5561 2.6359 33.6851 7.2899 33.7971 12.2919C37.2371 14.3729 38.7901 18.8379 37.2851 22.9759C35.7751 27.1249 31.6961 29.5489 27.7121 28.9129L27.7051 28.9319L27.6221 28.8979C26.5133 28.7084 25.4561 28.2899 24.5181 27.6689Z" fill="#B0E6FF"/>
</g>
<defs>
<clipPath id="clip0_161_1270">
<rect width="38" height="29" fill="white"/>
</clipPath>
</defs>
</svg>
