<svg width="44" height="48" viewBox="0 0 44 48" fill="none" xmlns="http://www.w3.org/2000/svg">
<g clip-path="url(#clip0_139_1120)">
<path fill-rule="evenodd" clip-rule="evenodd" d="M20.8299 36.0611C18.4488 35.834 16.1708 34.9782 14.2291 33.5813C12.2875 32.1844 10.752 30.2965 9.7799 28.111C6.7479 21.3 9.8099 13.32 16.6219 10.287C23.4329 7.25405 31.4129 10.317 34.4459 17.129C36.6719 22.128 35.6139 27.756 32.2009 31.597L33.0209 36.2701L24.6269 40.1171L20.8299 36.0611ZM0.947898 30.401L5.5159 28.3671L6.3289 30.195L1.7619 32.2281L0.947898 30.401ZM37.4899 14.131L42.0579 12.098L42.8709 13.925L38.3029 15.959L37.4899 14.132V14.131ZM12.9129 42.8111L14.7049 38.142L16.5719 38.8591L14.7799 43.5271L12.9129 42.8111ZM27.2479 5.46605L29.0389 0.800049L30.9069 1.51705L29.1149 6.18505L27.2479 5.46805V5.46605ZM1.2629 13.166L5.9299 14.957L5.2139 16.824L0.545898 15.032L1.2629 13.165V13.166ZM38.6059 27.5L43.2739 29.292L42.5569 31.159L37.8889 29.3671L38.6059 27.5ZM11.8449 2.01505L13.6719 1.20205L15.7049 5.76905L13.8779 6.58305L11.8449 2.01505Z" fill="#F9E1C0"/>
<path fill-rule="evenodd" clip-rule="evenodd" d="M26.187 41.6041L33.495 38.3501L33.902 39.2641L26.594 42.5181L26.187 41.6041ZM27.407 44.3451L34.715 41.0911L35.122 42.0041L27.814 45.2581L27.407 44.3451Z" fill="#F9E1C0" stroke="#F9E1C0"/>
<path fill-rule="evenodd" clip-rule="evenodd" d="M28.0999 44.5841L34.4299 41.7661C34.6595 42.5763 34.5894 43.442 34.2323 44.2047C33.8753 44.9673 33.2553 45.5756 32.486 45.9181C31.7167 46.2606 30.8497 46.3142 30.0441 46.0692C29.2385 45.8242 28.5482 45.2969 28.0999 44.5841Z" fill="#F9E1C0" stroke="#F9E1C0" stroke-width="2"/>
</g>
<defs>
<clipPath id="clip0_139_1120">
<rect width="44" height="48" fill="white"/>
</clipPath>
</defs>
</svg>
