<svg width="44" height="36" viewBox="0 0 44 36" fill="none" xmlns="http://www.w3.org/2000/svg">
<path fill-rule="evenodd" clip-rule="evenodd" d="M17.7712 6.18962L31.3672 0.366018C31.7986 0.181267 32.2617 0.0840667 32.7303 0.0799692C33.1988 0.0758717 33.6636 0.164957 34.098 0.342137C34.5325 0.519318 34.9281 0.781122 35.2622 1.1126C35.5964 1.44407 35.8625 1.83873 36.0455 2.27402L43.0141 18.8424C43.3836 19.7212 43.3921 20.712 43.0377 21.597C42.6834 22.4821 41.9952 23.1889 41.1245 23.562L14.853 34.8156C14.4216 35.0004 13.9585 35.0976 13.4899 35.1017C13.0214 35.1058 12.5566 35.0167 12.1222 34.8395C11.6877 34.6623 11.2921 34.4005 10.958 34.069C10.6238 33.7376 10.3577 33.3429 10.1747 32.9076L4.71631 19.932C4.28071 19.5661 3.9382 19.1004 3.71739 18.5736L1.39371 13.05C1.21063 12.6148 1.1143 12.1474 1.11024 11.6746C1.10618 11.2018 1.19446 10.7328 1.37005 10.2944C1.54563 9.85601 1.80508 9.45682 2.13357 9.11964C2.46206 8.78245 2.85315 8.51386 3.28452 8.32922L11.7183 4.71722C12.1697 4.52385 12.6559 4.42649 13.1463 4.43124C13.6368 4.43599 14.121 4.54274 14.5687 4.74482L17.7712 6.18962Z" fill="#B2D5FE"/>
</svg>
