<svg width="66" height="75" viewBox="0 0 66 75" fill="none" xmlns="http://www.w3.org/2000/svg">
<circle cx="12" cy="12" r="12" fill="#1C2129"/>
<g clip-path="url(#clip0_555_1136)">
<path d="M65.11 56.12C65.08 54.75 64.97 53.39 64.78 52.06C63.83 45.63 60.92 39.72 55.99 35.24C51.68 31.32 46.27 28.88 40.59 27.71C38.38 27.25 36.21 27.15 34.01 27.02C33.53 26.99 33.04 27 32.56 27C32.08 27 31.6 27 31.12 27.04C28.92 27.17 26.75 27.27 24.54 27.73C18.86 28.9 13.45 31.34 9.14001 35.26C4.21001 39.74 1.30001 45.65 0.350013 52.08C0.160013 53.41 0.0500132 54.77 0.0200132 56.14C-0.0399868 59.69 0.0300132 63.23 0.0800132 66.78V66.86C0.0800132 67.3 0.0800132 67.75 0.0900132 68.19C0.450013 71.51 3.27001 74.09 6.68001 74.09C10.09 74.09 12.75 71.65 13.23 68.46L13.3 67.18L13.46 64.03C13.66 60.2 13.51 56.22 14.13 52.43C15.62 43.34 23.82 39.05 32.56 39C41.3 39.05 49.51 43.32 51 52.41C51.62 56.2 51.47 60.18 51.67 64.01L51.83 67.16L51.9 68.44C52.38 71.63 55.13 74.07 58.45 74.07C61.77 74.07 64.68 71.49 65.04 68.17C65.05 67.73 65.05 67.28 65.05 66.84V66.76C65.1 63.21 65.17 59.67 65.11 56.12Z" fill="#1C2129"/>
</g>
<defs>
<clipPath id="clip0_555_1136">
<rect width="65.13" height="47.09" fill="white" transform="translate(0 27)"/>
</clipPath>
</defs>
</svg>
