<svg width="17" height="16" viewBox="0 0 17 16" fill="none" xmlns="http://www.w3.org/2000/svg">
<path fill-rule="evenodd" clip-rule="evenodd" d="M8.87504 5.34961V6.72397C9.1387 6.28018 9.50645 5.91935 9.94107 5.67801C10.3757 5.43667 10.8617 5.32338 11.35 5.34961C13.975 5.34961 14.5 7.1282 14.5 9.39185V14H12.1V9.95776C12.1 8.90678 11.95 7.69411 10.525 7.69411C9.10004 7.69411 8.87504 8.74509 8.87504 9.79607V14H6.47504V5.34961H8.87504ZM4.90004 3.16681C4.90598 3.36766 4.86843 3.56724 4.79036 3.74973C4.71229 3.93221 4.59586 4.09258 4.45028 4.21812C4.30471 4.34365 4.134 4.4309 3.9517 4.47294C3.7694 4.51498 3.58052 4.51066 3.40004 4.46032C3.23528 4.40767 3.08294 4.31748 2.95331 4.19587C2.82369 4.07426 2.71981 3.92406 2.6487 3.75542C2.57759 3.58679 2.54091 3.40366 2.54114 3.21842C2.54137 3.03319 2.57851 2.85016 2.65004 2.68174C2.73292 2.5153 2.84862 2.37045 2.989 2.25736C3.12938 2.14428 3.29103 2.06572 3.46259 2.02719C3.63416 1.98866 3.81147 1.99111 3.98206 2.03435C4.15265 2.0776 4.31239 2.1606 4.45004 2.27751C4.67504 2.52005 4.82504 2.84343 4.82504 3.16681H4.90004Z" fill="#130F49"/>
<path d="M4.9 5.34961H2.5V14H4.9V5.34961Z" fill="#130F49"/>
</svg>
