<svg width="16" height="16" viewBox="0 0 16 16" fill="none" xmlns="http://www.w3.org/2000/svg">
<path d="M8.00004 1.33325C7.12456 1.33325 6.25765 1.50569 5.44882 1.84072C4.63998 2.17575 3.90505 2.66682 3.286 3.28587C2.03575 4.53612 1.33337 6.23181 1.33337 7.99992C1.33337 10.9466 3.24671 13.4466 5.89337 14.3333C6.22671 14.3866 6.33337 14.1799 6.33337 13.9999V12.8733C4.48671 13.2733 4.09337 11.9799 4.09337 11.9799C3.78671 11.2066 3.35337 10.9999 3.35337 10.9999C2.74671 10.5866 3.40004 10.5999 3.40004 10.5999C4.06671 10.6466 4.42004 11.2866 4.42004 11.2866C5.00004 12.2999 5.98004 11.9999 6.36004 11.8399C6.42004 11.4066 6.59337 11.1133 6.78004 10.9466C5.30004 10.7799 3.74671 10.2066 3.74671 7.66659C3.74671 6.92659 4.00004 6.33325 4.43337 5.85992C4.36671 5.69325 4.13337 4.99992 4.50004 4.09992C4.50004 4.09992 5.06004 3.91992 6.33337 4.77992C6.86004 4.63325 7.43337 4.55992 8.00004 4.55992C8.56671 4.55992 9.14004 4.63325 9.66671 4.77992C10.94 3.91992 11.5 4.09992 11.5 4.09992C11.8667 4.99992 11.6334 5.69325 11.5667 5.85992C12 6.33325 12.2534 6.92659 12.2534 7.66659C12.2534 10.2133 10.6934 10.7733 9.20671 10.9399C9.44671 11.1466 9.66671 11.5533 9.66671 12.1733V13.9999C9.66671 14.1799 9.77337 14.3933 10.1134 14.3333C12.76 13.4399 14.6667 10.9466 14.6667 7.99992C14.6667 7.12444 14.4943 6.25753 14.1592 5.4487C13.8242 4.63986 13.3331 3.90493 12.7141 3.28587C12.095 2.66682 11.3601 2.17575 10.5513 1.84072C9.74243 1.50569 8.87552 1.33325 8.00004 1.33325Z" fill="#130F49"/>
</svg>
